<svg xmlns="http://www.w3.org/2000/svg" xmlns:xlink="http://www.w3.org/1999/xlink" width="1366" zoomAndPan="magnify" viewBox="0 0 1024.5 582.749988" height="777" preserveAspectRatio="xMidYMid meet" version="1.0"><defs><clipPath id="0e3fab5767"><path d="M 0 0.015625 L 1024 0.015625 L 1024 582.484375 L 0 582.484375 Z M 0 0.015625 " clip-rule="nonzero"/></clipPath><clipPath id="99d1b3f1d4"><path d="M 223.402344 19.261719 L 829.855469 19.261719 L 829.855469 545.503906 L 223.402344 545.503906 Z M 223.402344 19.261719 " clip-rule="nonzero"/></clipPath></defs><g clip-path="url(#0e3fab5767)"><path fill="#ffffff" d="M 0 0.015625 L 1024 0.015625 L 1024 582.484375 L 0 582.484375 Z M 0 0.015625 " fill-opacity="1" fill-rule="nonzero"/><path fill="#ffffff" d="M 0 0.015625 L 1024 0.015625 L 1024 582.484375 L 0 582.484375 Z M 0 0.015625 " fill-opacity="1" fill-rule="nonzero"/></g><g clip-path="url(#99d1b3f1d4)"><path fill="#a5c5c5" d="M 829.691406 45.847656 L 829.691406 465.15625 C 829.691406 468.097656 827.3125 470.476562 824.375 470.476562 L 722.625 470.476562 L 722.625 539.925781 C 722.625 542.863281 720.246094 545.242188 717.308594 545.242188 L 669.351562 545.242188 C 666.410156 545.242188 664.03125 542.863281 664.03125 539.925781 L 664.03125 470.476562 L 390.566406 470.476562 L 390.566406 539.925781 C 390.566406 542.863281 388.191406 545.242188 385.25 545.242188 L 337.296875 545.242188 C 334.359375 545.242188 331.980469 542.863281 331.980469 539.925781 L 331.980469 470.476562 L 228.730469 470.476562 C 225.792969 470.476562 223.414062 468.097656 223.414062 465.15625 L 223.414062 45.847656 C 223.414062 31.179688 235.34375 19.257812 250.003906 19.257812 L 803.101562 19.257812 C 817.761719 19.257812 829.691406 31.179688 829.691406 45.847656 Z M 387.769531 346.980469 L 441.050781 228.972656 L 379.871094 228.972656 L 326.589844 346.980469 Z M 310.828125 228.972656 C 302.027344 228.972656 294.871094 236.128906 294.871094 244.925781 L 294.871094 331.027344 C 294.871094 339.824219 302.027344 346.980469 310.828125 346.980469 L 314.917969 346.980469 L 368.199219 228.972656 Z M 361.914062 217.910156 C 379.761719 217.910156 394.277344 203.390625 394.277344 185.542969 C 394.277344 167.699219 379.761719 153.1875 361.914062 153.1875 C 344.070312 153.1875 329.554688 167.699219 329.554688 185.542969 C 329.554688 203.390625 344.070312 217.910156 361.914062 217.910156 Z M 617.992188 346.980469 L 679.175781 346.980469 L 732.457031 228.972656 L 671.277344 228.972656 Z M 693.972656 217.910156 C 711.820312 217.910156 726.335938 203.390625 726.335938 185.542969 C 726.335938 167.699219 711.820312 153.1875 693.972656 153.1875 C 676.128906 153.1875 661.613281 167.699219 661.613281 185.542969 C 661.613281 203.390625 676.128906 217.910156 693.972656 217.910156 Z M 390.566406 357.617188 L 390.566406 414.875 L 664.03125 414.871094 L 664.03125 357.617188 Z M 659.605469 228.972656 L 598.421875 228.972656 L 545.140625 346.980469 L 606.320312 346.980469 Z M 586.75 228.972656 L 525.570312 228.972656 L 472.289062 346.980469 L 533.472656 346.980469 Z M 513.898438 228.972656 L 452.71875 228.972656 L 399.441406 346.980469 L 460.621094 346.980469 Z M 711.988281 357.617188 L 674.667969 357.617188 L 674.667969 420.191406 C 674.667969 423.128906 672.289062 425.507812 669.351562 425.507812 L 385.25 425.511719 C 382.3125 425.511719 379.933594 423.128906 379.933594 420.191406 L 379.933594 357.617188 L 342.617188 357.617188 L 342.617188 534.605469 L 379.933594 534.605469 L 379.933594 465.15625 C 379.933594 462.21875 382.3125 459.839844 385.25 459.839844 L 669.351562 459.839844 C 672.289062 459.839844 674.667969 462.21875 674.667969 465.15625 L 674.667969 534.605469 L 711.988281 534.605469 Z M 742.277344 346.980469 C 751.078125 346.980469 758.234375 339.824219 758.234375 331.027344 L 758.234375 244.929688 C 758.234375 236.734375 752.003906 230.046875 744.046875 229.152344 L 690.847656 346.980469 Z M 819.054688 102.789062 L 234.050781 102.789062 L 234.050781 459.839844 L 331.980469 459.839844 L 331.980469 357.617188 L 310.828125 357.617188 C 296.164062 357.617188 284.234375 345.695312 284.234375 331.027344 L 284.234375 244.929688 C 284.234375 230.261719 296.164062 218.335938 310.828125 218.335938 L 334.429688 218.335938 C 325.03125 210.441406 318.917969 198.753906 318.917969 185.542969 C 318.917969 161.839844 338.207031 142.550781 361.914062 142.550781 C 385.625 142.550781 404.914062 161.839844 404.914062 185.542969 C 404.914062 198.753906 398.800781 210.441406 389.398438 218.335938 L 666.488281 218.335938 C 657.089844 210.441406 650.976562 198.753906 650.976562 185.542969 C 650.976562 161.839844 670.265625 142.550781 693.972656 142.550781 C 717.679688 142.550781 736.972656 161.839844 736.972656 185.542969 C 736.972656 198.753906 730.859375 210.441406 721.457031 218.335938 L 742.277344 218.335938 C 756.941406 218.335938 768.871094 230.261719 768.871094 244.929688 L 768.871094 331.027344 C 768.871094 345.695312 756.941406 357.617188 742.277344 357.617188 L 722.625 357.617188 L 722.625 459.839844 L 819.054688 459.839844 Z M 819.054688 45.847656 C 819.054688 37.050781 811.898438 29.890625 803.101562 29.890625 L 250.003906 29.890625 C 241.207031 29.890625 234.050781 37.050781 234.050781 45.847656 L 234.050781 92.152344 L 819.054688 92.152344 Z M 819.054688 45.847656 " fill-opacity="1" fill-rule="nonzero"/></g><path fill="#a5c5c5" d="M 787.90625 55.695312 L 751.441406 55.695312 C 748.5 55.695312 746.121094 58.074219 746.121094 61.011719 C 746.121094 63.953125 748.5 66.332031 751.441406 66.332031 L 787.90625 66.332031 C 790.84375 66.332031 793.222656 63.953125 793.222656 61.011719 C 793.222656 58.074219 790.84375 55.695312 787.90625 55.695312 Z M 787.90625 55.695312 " fill-opacity="1" fill-rule="nonzero"/><path fill="#a5c5c5" d="M 714.972656 55.695312 L 678.5 55.695312 C 675.5625 55.695312 673.183594 58.074219 673.183594 61.011719 C 673.183594 63.953125 675.5625 66.332031 678.5 66.332031 L 714.972656 66.332031 C 717.910156 66.332031 720.289062 63.953125 720.289062 61.011719 C 720.289062 58.074219 717.910156 55.695312 714.972656 55.695312 Z M 714.972656 55.695312 " fill-opacity="1" fill-rule="nonzero"/><path fill="#a5c5c5" d="M 642.03125 55.695312 L 605.566406 55.695312 C 602.628906 55.695312 600.25 58.074219 600.25 61.011719 C 600.25 63.953125 602.628906 66.332031 605.566406 66.332031 L 642.03125 66.332031 C 644.972656 66.332031 647.351562 63.953125 647.351562 61.011719 C 647.351562 58.074219 644.972656 55.695312 642.03125 55.695312 Z M 642.03125 55.695312 " fill-opacity="1" fill-rule="nonzero"/></svg>